<svg width="100" height="100" viewBox="0 0 100 100" fill="none" xmlns="http://www.w3.org/2000/svg">
<rect width="100" height="100" fill="#111B21"/>
<path d="M19.3324 68H11.4233L23.4744 33.0909H32.9858L45.0199 68H37.1108L28.3665 41.0682H28.0938L19.3324 68ZM18.8381 54.2784H37.5199V60.0398H18.8381V54.2784ZM49.2216 68V33.0909H62.9943C65.642 33.0909 67.8977 33.5966 69.7614 34.608C71.625 35.608 73.0455 37 74.0227 38.7841C75.0114 40.5568 75.5057 42.6023 75.5057 44.9205C75.5057 47.2386 75.0057 49.2841 74.0057 51.0568C73.0057 52.8295 71.5568 54.2102 69.6591 55.1989C67.7727 56.1875 65.4886 56.6818 62.8068 56.6818H54.0284V50.767H61.6136C63.0341 50.767 64.2045 50.5227 65.125 50.0341C66.0568 49.5341 66.75 48.8466 67.2045 47.9716C67.6705 47.0852 67.9034 46.0682 67.9034 44.9205C67.9034 43.7614 67.6705 42.75 67.2045 41.8864C66.75 41.0114 66.0568 40.3352 65.125 39.858C64.1932 39.3693 63.0114 39.125 61.5795 39.125H56.6023V68H49.2216ZM87.6804 33.0909V68H80.2997V33.0909H87.6804Z" fill="#00A884"/>
</svg>
